<?xml version="1.0" standalone="no"?>
<!DOCTYPE svg PUBLIC "-//W3C//DTD SVG 20010904//EN"
 "http://www.w3.org/TR/2001/REC-SVG-20010904/DTD/svg10.dtd">
<svg version="1.0" xmlns="http://www.w3.org/2000/svg"
 width="512.000000pt" height="512.000000pt" viewBox="0 0 512.000000 512.000000"
 preserveAspectRatio="xMidYMid meet">

<g transform="translate(0.000000,512.000000) scale(0.100000,-0.100000)"
fill="#000000" stroke="none">
<path d="M1783 5105 c-124 -34 -244 -128 -297 -233 -47 -93 -56 -150 -56 -354
0 -144 -3 -188 -12 -188 -28 -1 -176 -68 -232 -105 -165 -110 -281 -263 -347
-460 l-24 -70 -3 -1259 c-2 -1227 -2 -1262 17 -1338 52 -205 195 -385 373
-471 l67 -32 0 -250 c1 -230 3 -253 21 -282 41 -67 -45 -63 1272 -63 934 0
1198 3 1218 13 13 7 35 28 47 46 22 33 23 41 24 285 l0 251 59 28 c183 86 328
268 380 473 20 78 20 104 18 1334 -3 1399 2 1289 -74 1449 -95 202 -271 363
-473 431 l-71 25 0 185 c0 261 -26 348 -139 461 -63 63 -131 101 -218 124 -82
22 -1470 21 -1550 0z m1511 -237 c54 -16 128 -90 144 -144 7 -25 12 -105 12
-203 l0 -161 -144 0 -144 0 -4 103 c-4 107 -12 132 -60 165 -21 15 -77 17
-526 20 -446 2 -506 1 -537 -14 -56 -26 -69 -56 -73 -171 l-4 -103 -144 0
-144 0 0 161 c0 98 5 178 12 203 15 50 89 127 138 143 52 16 1418 17 1474 1z
m-376 -485 l3 -23 -360 0 c-343 0 -361 1 -361 18 0 10 3 22 7 25 4 4 164 6
357 5 l351 -3 3 -22z m742 -290 c177 -61 312 -191 375 -358 14 -36 25 -70 25
-75 0 -7 -530 -10 -1500 -10 -970 0 -1500 3 -1500 10 0 21 49 140 75 180 86
136 244 243 396 269 30 5 496 8 1059 7 l1005 -1 65 -22z m410 -1693 l0 -1010
-1510 0 -1510 0 0 1010 0 1010 1510 0 1510 0 0 -1010z m-30 -1302 c-58 -153
-196 -269 -359 -304 -98 -20 -2144 -20 -2242 0 -163 35 -301 151 -359 304
l-20 52 1500 0 1500 0 -20 -52z m-430 -708 l0 -150 -1050 0 -1050 0 0 150 0
150 1050 0 1050 0 0 -150z"/>
<path d="M2635 3285 c-132 -35 -234 -93 -329 -183 -92 -89 -147 -182 -201
-339 -3 -9 -13 -9 -41 3 -76 32 -133 -5 -193 -124 -59 -117 -76 -194 -76 -342
1 -156 15 -222 75 -345 187 -380 651 -535 1035 -346 193 95 343 278 402 491
28 102 25 312 -6 410 -41 133 -112 251 -199 333 -45 41 -56 47 -95 47 -70 0
-127 -60 -127 -134 0 -41 -16 -38 -45 7 -16 23 -46 63 -67 88 -55 66 -51 88
40 219 51 74 62 122 38 168 -31 60 -104 76 -211 47z m-116 -493 c11 -22 43
-68 72 -103 70 -88 90 -130 98 -214 4 -42 14 -83 25 -99 37 -58 123 -68 207
-26 37 19 98 81 120 121 12 23 12 23 26 -16 24 -64 28 -199 9 -279 -57 -240
-267 -406 -516 -406 -299 0 -529 233 -530 537 l0 72 53 -24 c111 -51 199 -39
241 33 18 31 18 40 6 118 -21 147 19 289 112 390 l43 47 7 -56 c4 -31 16 -74
27 -95z"/>
</g>
</svg>
