<svg width="7" height="10" viewBox="0 0 7 10" fill="none" xmlns="http://www.w3.org/2000/svg">
<path fill-rule="evenodd" clip-rule="evenodd" d="M0.969988 9.53009C0.829538 9.38947 0.750648 9.19884 0.750648 9.00009C0.750648 8.80134 0.829538 8.61072 0.969988 8.47009L4.43999 5.00009L0.969989 1.53009C0.837509 1.38792 0.765385 1.19987 0.768813 1.00557C0.772241 0.811267 0.850954 0.625881 0.988367 0.488468C1.12578 0.351055 1.31117 0.272344 1.50547 0.268915C1.69977 0.265487 1.88781 0.33761 2.02999 0.47009L6.02999 4.47009C6.17044 4.61072 6.24933 4.80134 6.24933 5.00009C6.24933 5.19884 6.17044 5.38946 6.02999 5.53009L2.02999 9.53009C1.88936 9.67054 1.69874 9.74943 1.49999 9.74943C1.30124 9.74943 1.11061 9.67054 0.969988 9.53009Z" fill="#4DAF50"/>
</svg>
