<svg width="7" height="10" viewBox="0 0 7 10" fill="none" xmlns="http://www.w3.org/2000/svg">
<path fill-rule="evenodd" clip-rule="evenodd" d="M6.03 0.469909C6.17045 0.610534 6.24934 0.801159 6.24934 0.999909C6.24934 1.19866 6.17045 1.38928 6.03 1.52991L2.56 4.99991L6.03 8.46991C6.16248 8.61208 6.2346 8.80013 6.23117 8.99443C6.22774 9.18873 6.14903 9.37412 6.01162 9.51153C5.8742 9.64894 5.68882 9.72766 5.49452 9.73108C5.30022 9.73451 5.11217 9.66239 4.97 9.52991L0.969997 5.52991C0.829546 5.38928 0.750656 5.19866 0.750656 4.99991C0.750656 4.80116 0.829546 4.61054 0.969997 4.46991L4.97 0.469909C5.11062 0.329458 5.30125 0.250569 5.5 0.250569C5.69875 0.250569 5.88937 0.329458 6.03 0.469909Z" fill="#4DAF50"/>
</svg>
