<?xml version="1.0" standalone="no"?>
<!DOCTYPE svg PUBLIC "-//W3C//DTD SVG 20010904//EN"
 "http://www.w3.org/TR/2001/REC-SVG-20010904/DTD/svg10.dtd">
<svg version="1.0" xmlns="http://www.w3.org/2000/svg"
 width="512.000000pt" height="512.000000pt" viewBox="0 0 512.000000 512.000000"
 preserveAspectRatio="xMidYMid meet">

<g transform="translate(0.000000,512.000000) scale(0.100000,-0.100000)"
fill="#000000" stroke="none">
<path d="M2205 4789 c-385 -25 -733 -86 -1017 -179 -397 -131 -613 -300 -648
-508 -7 -48 -10 -504 -8 -1587 l3 -1520 22 -55 c103 -252 497 -448 1108 -553
801 -138 1787 -77 2374 148 265 101 433 221 511 365 l35 65 3 1577 c2 1557 2
1577 -18 1630 -120 322 -777 564 -1675 618 -195 11 -500 11 -690 -1z m775
-220 c748 -55 1360 -275 1396 -501 24 -144 -269 -323 -700 -428 -296 -73 -608
-109 -1001 -117 -689 -13 -1269 80 -1650 267 -180 88 -275 178 -275 260 0 142
273 305 685 409 436 110 999 150 1545 110z m-2037 -979 c611 -292 1776 -372
2668 -184 300 63 550 154 717 260 l52 34 0 -315 c0 -351 0 -353 -66 -419 -181
-179 -606 -315 -1196 -383 -220 -25 -897 -25 -1113 0 -313 37 -602 97 -799
167 -205 73 -374 175 -427 258 l-29 46 0 323 0 324 46 -31 c25 -18 91 -54 147
-80z m-27 -949 c657 -330 1992 -397 2909 -145 198 55 404 141 512 216 l43 29
0 -372 c0 -427 4 -407 -93 -495 -71 -64 -248 -155 -397 -204 -331 -109 -731
-168 -1215 -177 -688 -13 -1268 80 -1650 267 -128 62 -207 121 -249 185 l-26
39 0 378 0 377 43 -28 c23 -16 79 -47 123 -70z m27 -1081 c673 -322 1997 -381
2892 -130 198 56 370 128 493 206 l52 34 0 -315 c0 -351 0 -353 -66 -419 -181
-179 -608 -316 -1196 -383 -194 -22 -863 -25 -1058 -5 -541 56 -949 171 -1178
332 -46 32 -84 69 -103 98 l-29 46 0 323 0 324 46 -31 c25 -18 91 -54 147 -80z"/>
<path d="M3874 3326 l-34 -34 0 -147 0 -147 34 -34 c46 -46 99 -47 145 -5 l31
29 0 146 c0 159 -7 189 -51 212 -48 24 -87 18 -125 -20z"/>
<path d="M3499 3221 l-29 -29 0 -152 0 -152 29 -29 c43 -43 101 -41 147 5 l34
34 0 137 c0 81 -5 145 -11 158 -19 38 -51 57 -97 57 -35 0 -49 -6 -73 -29z"/>
<path d="M3892 2330 c-18 -11 -37 -32 -42 -46 -6 -14 -10 -85 -10 -157 0 -113
3 -137 20 -164 25 -41 79 -58 125 -39 59 25 65 44 65 208 0 147 0 148 -27 178
-37 41 -86 48 -131 20z"/>
<path d="M3525 2228 c-50 -27 -55 -44 -55 -199 0 -132 2 -149 20 -172 30 -38
80 -52 123 -33 60 24 69 56 65 218 l-3 140 -33 29 c-34 31 -80 38 -117 17z"/>
<path d="M3884 1315 c-38 -26 -46 -64 -42 -214 3 -136 4 -141 29 -167 16 -16
41 -28 67 -31 37 -5 45 -2 77 30 l35 35 0 152 0 152 -29 29 c-24 23 -38 29
-73 29 -24 0 -53 -7 -64 -15z"/>
<path d="M3534 1220 c-12 -4 -31 -21 -43 -36 -19 -24 -21 -39 -21 -165 0 -80
5 -148 11 -163 28 -60 122 -71 170 -20 23 24 24 34 27 162 4 155 -3 183 -50
212 -35 21 -60 24 -94 10z"/>
</g>
</svg>
