<svg width="24" height="24" viewBox="0 0 24 24" fill="none" xmlns="http://www.w3.org/2000/svg">
<path d="M4.33801 5.53015C9.44401 7.46215 14.549 7.46215 19.655 5.53015C19.8058 5.47473 19.9677 5.45645 20.127 5.47685C20.2864 5.49725 20.4385 5.55575 20.5704 5.64737C20.7024 5.739 20.8103 5.86107 20.8851 6.00324C20.9598 6.14541 20.9993 6.30351 21 6.46415V17.4642C21 18.1562 20.308 18.6642 19.66 18.4262C14.553 16.4942 9.44601 16.4942 4.33901 18.4262C4.1885 18.4821 4.02668 18.5007 3.8674 18.4804C3.70812 18.4601 3.55614 18.4015 3.42449 18.3095C3.29284 18.2176 3.18545 18.0951 3.11152 17.9526C3.03759 17.8101 2.99932 17.6517 3.00001 17.4912V6.46415C3.00099 6.30427 3.04029 6.14696 3.11462 6.0054C3.18895 5.86385 3.29613 5.74218 3.42719 5.6506C3.55824 5.55902 3.70934 5.50019 3.86782 5.47906C4.0263 5.45793 4.18754 5.47511 4.33801 5.52915V5.53015Z" stroke="#091409" stroke-width="1.5" stroke-linecap="round" stroke-linejoin="round"/>
<path d="M15 9H15.01" stroke="#091409" stroke-width="1.5" stroke-linecap="round" stroke-linejoin="round"/>
<path d="M3 15.9998L8 10.9998C8.928 10.1068 10.072 10.1068 11 10.9998L16 15.9998M14 13.9998L15 12.9998C15.928 12.1068 17.072 12.1068 18 12.9998L21 15.9998" stroke="#091409" stroke-width="1.5" stroke-linecap="round" stroke-linejoin="round"/>
</svg>
